<svg width="60" height="61" viewBox="0 0 60 61" fill="none" xmlns="http://www.w3.org/2000/svg">
<path opacity="0.982" fill-rule="evenodd" clip-rule="evenodd" d="M27.242 0.541435C40.1327 -0.0230797 49.8591 5.18067 56.4212 16.1527C60.5702 24.3243 61.1116 32.7337 58.0457 41.3804C54.345 50.3592 47.8678 56.3331 38.6137 59.3021C27.6911 62.157 17.9855 59.909 9.49698 52.5581C1.80746 44.9476 -1.21252 35.7682 0.437044 25.0198C2.69131 14.526 8.71043 7.09499 18.4944 2.72701C21.3285 1.6026 24.2444 0.874079 27.242 0.541435Z" fill="#030200"/>
<path fill-rule="evenodd" clip-rule="evenodd" d="M27.6168 2.53966C28.0751 2.53966 28.5332 2.53966 28.9914 2.53966C28.9914 3.20573 28.9914 3.87182 28.9914 4.5379C27.493 4.63249 26.0143 4.84063 24.5552 5.16234C24.3895 5.13051 24.2645 5.04725 24.1803 4.91257C23.9631 4.34759 23.8173 3.76478 23.7429 3.16411C25.0482 2.94235 26.3396 2.73421 27.6168 2.53966Z" fill="#F6E339"/>
<path fill-rule="evenodd" clip-rule="evenodd" d="M30.9908 2.66454C32.7527 2.70772 34.5022 2.87424 36.2393 3.16409C36.1649 3.76477 36.0191 4.34758 35.8019 4.91255C35.7177 5.04723 35.5927 5.1305 35.427 5.16233C33.9717 4.78302 32.4929 4.61649 30.9908 4.66277C30.9908 3.9967 30.9908 3.33061 30.9908 2.66454Z" fill="#F8E439"/>
<path fill-rule="evenodd" clip-rule="evenodd" d="M21.4936 3.78857C21.6185 3.78857 21.7435 3.78857 21.8685 3.78857C22.0332 4.44717 22.1581 5.11324 22.2434 5.78681C20.7304 6.1784 19.2933 6.76123 17.9321 7.53527C17.5624 6.98379 17.2083 6.42179 16.8699 5.84926C18.3596 5.02107 19.9008 4.33418 21.4936 3.78857Z" fill="#F7E439"/>
<path fill-rule="evenodd" clip-rule="evenodd" d="M38.1138 3.78857C39.8671 4.26845 41.5333 4.95535 43.1124 5.84926C42.774 6.42179 42.4199 6.98379 42.0502 7.53527C40.7127 6.81895 39.3173 6.23614 37.8639 5.78681C37.8223 5.68274 37.7806 5.57866 37.739 5.47459C37.8743 4.91303 37.9993 4.35103 38.1138 3.78857Z" fill="#F7E439"/>
<path fill-rule="evenodd" clip-rule="evenodd" d="M27.7417 6.5361C35.7302 6.08082 42.4575 8.74514 47.9235 14.5291C54.2622 22.1945 55.6369 30.6871 52.0474 40.0066C48.6776 47.3284 43.0749 51.9702 35.2396 53.9318C26.1502 55.6355 18.4233 53.1586 12.0587 46.5009C6.58251 39.9434 4.833 32.4916 6.81017 24.1456C9.49691 15.6322 15.0994 10.033 23.6179 7.34789C24.9955 7.00169 26.3701 6.73109 27.7417 6.5361Z" fill="#FCD734"/>
<path fill-rule="evenodd" clip-rule="evenodd" d="M14.8705 6.91082C15.0357 6.88959 15.1816 6.93123 15.3079 7.03571C15.5536 7.55103 15.8242 8.05059 16.1202 8.53439C14.8229 9.3517 13.6149 10.2884 12.4962 11.3444C12.4128 11.4277 12.3296 11.4277 12.2463 11.3444C11.8505 10.9489 11.4549 10.5534 11.0591 10.158C10.9757 10.0747 10.9757 9.99144 11.0591 9.90818C12.3042 8.86144 13.5746 7.86232 14.8705 6.91082Z" fill="#F9E639"/>
<path fill-rule="evenodd" clip-rule="evenodd" d="M44.7369 6.9108C46.2624 7.70652 47.6579 8.70564 48.9233 9.90815C49.0066 9.99142 49.0066 10.0747 48.9233 10.1579C48.5275 10.5534 48.1318 10.9489 47.7361 11.3444C47.6527 11.4277 47.5695 11.4277 47.4862 11.3444C46.3675 10.2884 45.1594 9.35168 43.8622 8.53437C44.1871 8.0097 44.4788 7.46851 44.7369 6.9108Z" fill="#F9E539"/>
<path fill-rule="evenodd" clip-rule="evenodd" d="M29.6162 11.1571C29.9625 11.1472 30.2957 11.2096 30.616 11.3444C34.5142 15.1986 38.3673 19.0911 42.1752 23.0216C42.2739 23.413 42.2323 23.7877 42.0502 24.1456C40.5679 25.6688 39.0475 27.1467 37.489 28.5792C37.0258 28.7036 36.6091 28.6204 36.2394 28.3294C34.1757 26.2461 32.0929 24.1854 29.9911 22.1474C27.8024 24.314 25.5948 26.4579 23.368 28.5792C22.9764 28.6779 22.6015 28.6363 22.2433 28.4543C20.7193 26.9729 19.2404 25.4533 17.8071 23.8958C17.7084 23.5044 17.75 23.1298 17.9321 22.7718C21.8137 18.8716 25.7084 15 29.6162 11.1571Z" fill="#080702"/>
<path fill-rule="evenodd" clip-rule="evenodd" d="M9.37195 11.5317C9.94492 11.8957 10.4448 12.3535 10.8715 12.9055C9.81772 14.0832 8.85965 15.3321 7.99734 16.6522C7.40185 16.3564 6.86033 16.0025 6.3728 15.5907C7.29677 14.1805 8.29648 12.8276 9.37195 11.5317Z" fill="#F9E639"/>
<path fill-rule="evenodd" clip-rule="evenodd" d="M50.3604 11.5317C51.633 12.7164 52.7159 14.0694 53.6094 15.5907C53.122 16.0025 52.5804 16.3564 51.9849 16.6522C51.1226 15.3321 50.1645 14.0832 49.1107 12.9055C49.53 12.4451 49.9466 11.9872 50.3604 11.5317Z" fill="#F9E639"/>
<path fill-rule="evenodd" clip-rule="evenodd" d="M29.8663 13.6548C33.2506 16.8497 36.583 20.1176 39.8635 23.4587C38.9263 24.3954 37.989 25.332 37.0518 26.2687C34.9065 24.1247 32.7614 21.9809 30.6161 19.8369C30.1996 19.5871 29.783 19.5871 29.3665 19.8369C27.2212 21.9809 25.0761 24.1247 22.9308 26.2687C21.9935 25.332 21.0563 24.3954 20.1191 23.4587C23.3934 20.2072 26.6425 16.9393 29.8663 13.6548Z" fill="#FEF49C"/>
<path fill-rule="evenodd" clip-rule="evenodd" d="M5.24809 17.4016C5.84858 17.7226 6.43174 18.0765 6.9976 18.4631C6.22309 19.8235 5.63992 21.2598 5.24809 22.7718C4.57412 22.6866 3.90765 22.5617 3.24866 22.3971C3.7071 20.6483 4.37359 18.983 5.24809 17.4016Z" fill="#F7E439"/>
<path fill-rule="evenodd" clip-rule="evenodd" d="M54.6092 17.4016C55.5866 18.9402 56.2946 20.6053 56.7336 22.3971C56.0769 22.5534 55.4104 22.6783 54.7342 22.7718C54.3423 21.2598 53.7592 19.8235 52.9847 18.4631C53.5343 18.1063 54.0759 17.7524 54.6092 17.4016Z" fill="#F8E539"/>
<path fill-rule="evenodd" clip-rule="evenodd" d="M2.62397 24.2705C3.225 24.3448 3.80816 24.4905 4.37347 24.7076C4.50039 24.7724 4.58369 24.8766 4.6234 25.0198C4.30584 26.502 4.09758 28.0007 3.99858 29.5159C3.33211 29.5159 2.66562 29.5159 1.99915 29.5159C2.06709 27.7502 2.27535 26.0017 2.62397 24.2705Z" fill="#F6E339"/>
<path fill-rule="evenodd" clip-rule="evenodd" d="M56.8586 24.2705C57.0252 24.2705 57.1919 24.2705 57.3584 24.2705C57.7071 26.0017 57.9153 27.7502 57.9833 29.5159C57.3168 29.5159 56.6503 29.5159 55.9838 29.5159C55.8652 28.0034 55.6569 26.5048 55.359 25.0198C55.4006 24.9365 55.4424 24.8533 55.484 24.77C55.9667 24.6312 56.425 24.4647 56.8586 24.2705Z" fill="#F6E238"/>
<path fill-rule="evenodd" clip-rule="evenodd" d="M15.4952 25.2696C15.9068 25.2395 16.2817 25.3436 16.6199 25.5818C18.0154 26.9765 19.4107 28.371 20.8062 29.7657C21.2093 30.256 21.2093 30.7555 20.8062 31.2643C19.4107 32.659 18.0154 34.0535 16.6199 35.4481C16.1826 35.7858 15.7244 35.8274 15.2453 35.573C13.7666 34.0952 12.2877 32.6173 10.809 31.1394C10.5742 30.7191 10.5742 30.3027 10.809 29.8905C12.358 28.3216 13.92 26.7813 15.4952 25.2696Z" fill="#080702"/>
<path fill-rule="evenodd" clip-rule="evenodd" d="M29.6163 25.2696C30.0279 25.2395 30.4028 25.3436 30.741 25.5818C32.1365 26.9765 33.5318 28.371 34.9273 29.7657C35.3304 30.256 35.3304 30.7555 34.9273 31.2643C33.5318 32.659 32.1365 34.0535 30.741 35.4481C30.2319 35.851 29.732 35.851 29.2414 35.4481C27.8459 34.0535 26.4506 32.659 25.0551 31.2643C24.652 30.7555 24.652 30.256 25.0551 29.7657C26.5624 28.2384 28.0827 26.7397 29.6163 25.2696Z" fill="#080602"/>
<path fill-rule="evenodd" clip-rule="evenodd" d="M43.7372 25.2696C44.0835 25.2597 44.4167 25.3222 44.7369 25.4569C46.2156 26.9348 47.6945 28.4127 49.1732 29.8905C49.408 30.3027 49.408 30.719 49.1732 31.1394C47.6945 32.6172 46.2156 34.0952 44.7369 35.573C44.2435 35.8569 43.7852 35.8153 43.3623 35.4481C41.9668 34.0535 40.5715 32.659 39.176 31.2643C38.7729 30.7555 38.7729 30.2559 39.176 29.7656C40.6833 28.2384 42.2037 26.7397 43.7372 25.2696Z" fill="#090702"/>
<path fill-rule="evenodd" clip-rule="evenodd" d="M15.7452 27.7674C16.7772 28.5903 17.7353 29.5061 18.6194 30.515C17.7447 31.4725 16.8283 32.3884 15.8702 33.2626C14.9121 32.3884 13.9957 31.4725 13.121 30.515C13.9983 29.5966 14.8731 28.6807 15.7452 27.7674Z" fill="#FDF39B"/>
<path fill-rule="evenodd" clip-rule="evenodd" d="M29.8661 27.7674C30.8981 28.5903 31.8562 29.5061 32.7403 30.515C31.8656 31.4725 30.9492 32.3884 29.9911 33.2626C29.033 32.3884 28.1166 31.4725 27.2419 30.515C28.1193 29.5966 28.994 28.6807 29.8661 27.7674Z" fill="#FDF39C"/>
<path fill-rule="evenodd" clip-rule="evenodd" d="M43.9872 27.7674C45.0192 28.5903 45.9773 29.5061 46.8614 30.515C45.9867 31.4725 45.0703 32.3884 44.1122 33.2626C43.1541 32.3884 42.2377 31.4725 41.363 30.515C42.2404 29.5966 43.1151 28.6807 43.9872 27.7674Z" fill="#FDF39B"/>
<path fill-rule="evenodd" clip-rule="evenodd" d="M2.12402 31.5141C2.7905 31.5141 3.45698 31.5141 4.12346 31.5141C4.07715 33.0153 4.24377 34.4932 4.62332 35.9477C4.59146 36.1133 4.50815 36.2382 4.37339 36.3223C3.80807 36.5394 3.22491 36.6851 2.62388 36.7595C2.33396 35.024 2.16735 33.2755 2.12402 31.5141Z" fill="#F8E539"/>
<path fill-rule="evenodd" clip-rule="evenodd" d="M55.8588 31.5141C56.5252 31.5141 57.1918 31.5141 57.8582 31.5141C57.8286 33.2784 57.662 35.0269 57.3584 36.7595C56.7074 36.6905 56.0826 36.5239 55.4839 36.2599C55.4747 35.3855 55.5789 34.5113 55.7963 33.6372C55.8587 32.9307 55.8795 32.223 55.8588 31.5141Z" fill="#F8E439"/>
<path fill-rule="evenodd" clip-rule="evenodd" d="M22.4933 32.3883C22.958 32.3261 23.3746 32.4303 23.7429 32.7005C25.8066 34.7838 27.8894 36.8445 29.9911 38.8826C32.0929 36.8445 34.1757 34.7838 36.2394 32.7005C36.709 32.3422 37.2088 32.3006 37.7389 32.5757C39.176 34.0119 40.6131 35.4481 42.0502 36.8844C42.2323 37.2423 42.2739 37.617 42.1752 38.0084C38.3673 41.9389 34.5142 45.8313 30.616 49.6856C30.2998 49.8632 29.9665 49.9047 29.6162 49.8105C25.5965 45.9597 21.6601 42.0257 17.8071 38.0084C17.7084 37.617 17.75 37.2423 17.9321 36.8844C19.4394 35.3571 20.9597 33.8584 22.4933 32.3883Z" fill="#080702"/>
<path fill-rule="evenodd" clip-rule="evenodd" d="M22.8683 34.7612C25.0508 36.88 27.2169 39.024 29.3665 41.1931C29.783 41.4428 30.1996 41.4428 30.6161 41.1931C32.7614 39.0491 34.9065 36.9052 37.0518 34.7612C37.989 35.6979 38.9263 36.6346 39.8635 37.5713C36.5919 40.8617 33.3011 44.1297 29.9913 47.3751C26.6815 44.1297 23.3907 40.8617 20.1191 37.5713C21.0608 36.6511 21.9772 35.7144 22.8683 34.7612Z" fill="#FEF49C"/>
<path fill-rule="evenodd" clip-rule="evenodd" d="M4.62327 38.2582C4.84671 38.2226 5.05498 38.2642 5.24809 38.3831C5.69769 39.8355 6.28085 41.2302 6.9976 42.5669C6.44579 42.9363 5.88345 43.2902 5.31057 43.6284C4.44162 42.0855 3.75431 40.462 3.24866 38.7577C3.73135 38.6189 4.18955 38.4524 4.62327 38.2582Z" fill="#F8E439"/>
<path fill-rule="evenodd" clip-rule="evenodd" d="M54.7342 38.2582C55.4104 38.3517 56.0769 38.4766 56.7336 38.6328C56.2539 40.3836 55.5666 42.0487 54.6717 43.6284C54.0989 43.2902 53.5365 42.9363 52.9847 42.5669C53.727 41.1948 54.3101 39.7586 54.7342 38.2582Z" fill="#F8E439"/>
<path fill-rule="evenodd" clip-rule="evenodd" d="M7.87238 44.3777C8.81114 45.6519 9.81086 46.9008 10.8715 48.1244C10.455 48.624 9.99678 49.082 9.49692 49.4982C8.32014 48.2492 7.27877 46.8963 6.3728 45.4393C6.3909 45.3429 6.43255 45.2596 6.49777 45.1895C7.00511 44.9786 7.46332 44.708 7.87238 44.3777Z" fill="#F9E639"/>
<path fill-rule="evenodd" clip-rule="evenodd" d="M51.8599 44.3777C52.4125 44.6158 52.9541 44.8863 53.4845 45.1895C53.5497 45.2596 53.5913 45.3429 53.6094 45.4393C52.7035 46.8963 51.6621 48.2492 50.4853 49.4982C49.9855 49.082 49.5272 48.624 49.1107 48.1244C50.1782 46.9762 51.0945 45.7273 51.8599 44.3777Z" fill="#F9E639"/>
<path fill-rule="evenodd" clip-rule="evenodd" d="M12.2463 49.6232C13.4978 50.6227 14.789 51.5802 16.1202 52.4956C15.8128 53.0059 15.5212 53.5264 15.2454 54.0568C15.1204 54.1401 14.9955 54.1401 14.8705 54.0568C13.5436 53.1541 12.2733 52.1758 11.0591 51.1218C10.9757 51.0385 10.9757 50.9554 11.0591 50.8721C11.4804 50.472 11.8761 50.0558 12.2463 49.6232Z" fill="#F9E639"/>
<path fill-rule="evenodd" clip-rule="evenodd" d="M47.4862 49.6232C48.0156 49.9639 48.4947 50.3801 48.9233 50.8721C49.0066 50.9554 49.0066 51.0385 48.9233 51.1218C47.7091 52.1758 46.4387 53.1541 45.1118 54.0568C44.9869 54.1401 44.8619 54.1401 44.7369 54.0568C44.4611 53.5264 44.1696 53.0059 43.8622 52.4956C45.1834 51.674 46.3915 50.7165 47.4862 49.6232Z" fill="#F9E639"/>
<path fill-rule="evenodd" clip-rule="evenodd" d="M17.8696 53.4948C19.2578 54.251 20.7158 54.8337 22.2434 55.2432C22.1498 55.919 22.0248 56.5852 21.8685 57.2414C20.1026 56.7962 18.4364 56.1093 16.8699 55.1808C17.2203 54.6256 17.5536 54.0636 17.8696 53.4948Z" fill="#F8E439"/>
<path fill-rule="evenodd" clip-rule="evenodd" d="M41.9878 53.4948C42.4063 54.0163 42.7812 54.5783 43.1124 55.1808C41.5318 56.0751 39.8656 56.762 38.1138 57.2414C37.9925 56.663 37.8675 56.0802 37.739 55.493C37.7806 55.4097 37.8223 55.3265 37.8639 55.2432C39.3124 54.8033 40.687 54.2205 41.9878 53.4948Z" fill="#F8E439"/>
<path fill-rule="evenodd" clip-rule="evenodd" d="M24.2428 55.8676C25.8047 56.2076 27.3876 56.374 28.9914 56.3672C28.9914 57.0749 28.9914 57.7826 28.9914 58.4903C27.2247 58.4224 25.4752 58.2143 23.7429 57.8659C23.8316 57.1782 23.9982 56.512 24.2428 55.8676Z" fill="#F4E138"/>
<path fill-rule="evenodd" clip-rule="evenodd" d="M35.1146 55.8677C35.3381 55.8321 35.5464 55.8737 35.7394 55.9925C36.0036 56.5909 36.1703 57.2153 36.2393 57.8659C34.4974 58.1287 32.7479 58.3369 30.9908 58.4903C30.9908 57.7826 30.9908 57.075 30.9908 56.3672C32.4135 56.4536 33.7881 56.287 35.1146 55.8677Z" fill="#F7E439"/>
</svg>
