<svg width="60" height="61" viewBox="0 0 60 61" fill="none" xmlns="http://www.w3.org/2000/svg">
<circle cx="30" cy="30.5" r="30" fill="#2F66F6"/>
<path opacity="0.988" fill-rule="evenodd" clip-rule="evenodd" d="M29.5208 11C29.7421 11.0437 29.8983 11.1533 29.9896 11.3289C34.8474 17.6447 39.7258 23.9494 44.625 30.2435C39.663 32.6138 34.663 34.9438 29.625 37.2336C24.587 34.9438 19.587 32.6138 14.625 30.2435C19.5931 23.8276 24.5583 17.4131 29.5208 11Z" fill="white"/>
<path opacity="0.967" fill-rule="evenodd" clip-rule="evenodd" d="M14.7292 32.2993C14.7354 32.2547 14.7701 32.2273 14.8334 32.2171C19.7639 34.5746 24.6945 36.932 29.625 39.2895C34.4253 36.9217 39.2343 34.5642 44.0521 32.2171C44.0695 32.2445 44.0868 32.2719 44.1042 32.2993C39.3149 37.7242 34.4886 43.1245 29.625 48.5C24.6332 43.1119 19.668 37.7117 14.7292 32.2993Z" fill="white"/>
</svg>
