<svg width="60" height="60" viewBox="0 0 60 60" fill="none" xmlns="http://www.w3.org/2000/svg">
<path opacity="0.898" fill-rule="evenodd" clip-rule="evenodd" d="M27.4698 0.00748626C28.1137 -0.0125161 28.7562 0.00756457 29.3975 0.0677272C30.0677 0.689727 30.0275 1.25197 29.277 1.75447C28.5739 1.81139 27.8711 1.87163 27.1686 1.9352C26.1504 1.94951 25.8091 1.46758 26.1445 0.489414C26.265 0.389013 26.3855 0.28861 26.506 0.188209C26.8511 0.166173 27.1724 0.105932 27.4698 0.00748626Z" fill="#56003E"/>
<path opacity="0.898" fill-rule="evenodd" clip-rule="evenodd" d="M32.6506 0.127991C33.6359 0.139649 34.5998 0.28021 35.5422 0.549677C35.9501 0.956075 36.0104 1.41792 35.7229 1.93522C35.4522 2.11354 35.151 2.19386 34.8193 2.17618C33.9982 2.11923 33.1951 1.97866 32.4097 1.7545C31.8901 1.11964 31.9705 0.577472 32.6506 0.127991Z" fill="#56003E"/>
<path opacity="0.89" fill-rule="evenodd" clip-rule="evenodd" d="M22.4096 0.850829C23.5613 0.735889 23.983 1.21782 23.6747 2.29661C23.5659 2.44136 23.4254 2.54177 23.253 2.59782C22.4935 2.8309 21.7305 3.05179 20.9638 3.26047C20.1607 3.05941 19.8998 2.57748 20.1807 1.81468C20.327 1.62808 20.5077 1.48752 20.7229 1.393C21.3108 1.24695 21.8731 1.06623 22.4096 0.850829Z" fill="#56003E"/>
<path opacity="0.891" fill-rule="evenodd" clip-rule="evenodd" d="M38.6748 1.33282C39.6306 1.5242 40.5542 1.8254 41.4459 2.23644C41.9454 2.7937 41.9053 3.31579 41.3254 3.8027C41.1848 3.82279 41.0443 3.84286 40.9037 3.86294C40.0654 3.65494 39.2421 3.3939 38.4338 3.07981C37.8982 2.40476 37.9785 1.82244 38.6748 1.33282Z" fill="#56003E"/>
<path opacity="0.885" fill-rule="evenodd" clip-rule="evenodd" d="M16.8675 2.89948C17.9651 2.93221 18.3064 3.45431 17.8916 4.46574C17.2388 4.86249 16.5761 5.24402 15.9036 5.61032C14.7579 5.79041 14.3363 5.32857 14.6385 4.22478C15.3593 3.73434 16.1023 3.29258 16.8675 2.89948Z" fill="#56003E"/>
<path opacity="0.894" fill-rule="evenodd" clip-rule="evenodd" d="M44.0963 3.86353C45.2207 4.03408 46.2047 4.51601 47.0481 5.30931C47.3151 6.3265 46.9335 6.78834 45.9035 6.69485C45.1698 6.27793 44.467 5.81608 43.7951 5.30931C43.4959 4.73255 43.5963 4.25062 44.0963 3.86353Z" fill="#56003E"/>
<path opacity="0.984" fill-rule="evenodd" clip-rule="evenodd" d="M28.5542 4.22503C38.9359 4.10303 46.8677 8.4009 52.3494 17.1186C57.0285 25.9836 56.908 34.7802 51.9879 43.5083C47.173 50.9296 40.3256 55.0066 31.4458 55.7392C21.0606 55.9194 13.1289 51.6416 7.6506 42.9058C2.97175 34.0363 3.09223 25.2398 8.01205 16.5161C12.8516 9.10362 19.699 5.00659 28.5542 4.22503ZM21.2048 13.7446C21.7966 13.6919 22.3588 13.7923 22.8916 14.0459C25.5422 15.6124 28.1928 17.1789 30.8434 18.7454C31.2085 19.0537 31.4696 19.4354 31.6265 19.8901C31.7069 21.2157 31.7069 22.5412 31.6265 23.8667C30.5319 24.5246 29.4276 25.1672 28.3132 25.7947C28.213 24.632 28.1528 23.4671 28.1325 22.3002C28.0049 21.9244 27.8443 21.5629 27.6506 21.2157C26.0749 20.1161 24.4484 19.0918 22.7711 18.1429C22.1012 17.8233 21.4184 17.7832 20.7229 18.0224C19.1165 18.9463 17.51 19.87 15.9036 20.7939C15.6385 21.0631 15.4177 21.3643 15.241 21.6977C15.0469 23.8202 15.0067 25.9489 15.1205 28.0842C15.2377 28.4793 15.4184 28.8408 15.6626 29.1687C17.2688 30.2533 18.9154 31.2776 20.6024 32.2415C21.1537 32.4193 21.716 32.4596 22.2891 32.362C27.1644 29.5824 32.0238 26.7707 36.8675 23.9269C37.5885 23.4747 38.3515 23.3542 39.1566 23.5654C42.1178 25.1965 45.0294 26.9037 47.8915 28.6867C48.0826 28.9482 48.2433 29.2294 48.3735 29.5302C48.569 32.8592 48.6093 36.1931 48.4939 39.5318C48.4137 40.2955 48.0723 40.9181 47.4699 41.3996C44.9799 42.8456 42.49 44.2916 40 45.7376C39.0171 46.4005 38.013 46.4406 36.9879 45.8581C34.4979 44.4121 32.0081 42.9661 29.5181 41.5201C28.9619 41.2046 28.5803 40.7427 28.3735 40.1343C28.2931 38.8489 28.2931 37.5636 28.3735 36.2783C29.4681 35.6203 30.5724 34.9777 31.6867 34.3502C31.787 35.4728 31.8472 36.5975 31.8675 37.7243C32.1088 38.6885 32.6911 39.3513 33.6144 39.7125C34.8996 40.4355 36.1847 41.1586 37.4699 41.8816C38.2084 42.1408 38.9313 42.1006 39.6385 41.7611C40.8923 40.9498 42.1773 40.1867 43.494 39.4715C44.1418 39.1049 44.5635 38.5626 44.759 37.8448C44.8746 35.6678 44.8344 33.4988 44.6385 31.3377C44.407 30.9349 44.1058 30.5934 43.7349 30.3135C42.1634 29.3669 40.557 28.4832 38.9156 27.6624C38.2453 27.5407 37.6026 27.6211 36.9879 27.9035C32.1482 30.7456 27.2888 33.5572 22.4096 36.3385C21.7497 36.5901 21.1071 36.55 20.4819 36.218C17.811 34.6211 15.1201 33.0546 12.4096 31.5185C11.9017 31.0447 11.6005 30.4622 11.506 29.7712C11.4257 26.6783 11.4257 23.5855 11.506 20.4926C11.5963 19.5684 12.0582 18.9057 12.8916 18.5044C15.6741 16.9128 18.4452 15.3263 21.2048 13.7446Z" fill="#56003E"/>
<path opacity="0.886" fill-rule="evenodd" clip-rule="evenodd" d="M11.6867 6.15309C12.7235 6.09386 13.105 6.57578 12.8313 7.59887C12.1588 8.3341 11.3756 8.89634 10.4819 9.28561C9.64399 9.1233 9.38295 8.64137 9.69877 7.83983C10.3491 7.24868 11.0117 6.68643 11.6867 6.15309Z" fill="#56003E"/>
<path opacity="0.89" fill-rule="evenodd" clip-rule="evenodd" d="M49.2772 7.358C49.516 7.41769 49.7569 7.47793 50.0001 7.53872C50.5824 8.12105 51.1648 8.70339 51.7471 9.28571C51.8924 10.4897 51.3903 10.8713 50.241 10.4303C49.739 9.92828 49.2371 9.42628 48.735 8.92427C48.3854 8.1973 48.5661 7.67522 49.2772 7.358Z" fill="#56003E"/>
<path opacity="0.884" fill-rule="evenodd" clip-rule="evenodd" d="M7.34941 10.3705C8.27722 10.3539 8.65874 10.7957 8.49399 11.6958C7.99198 12.3585 7.48998 13.0211 6.98797 13.6838C5.88228 13.984 5.42044 13.5623 5.60242 12.4187C6.12685 11.6744 6.70918 10.9917 7.34941 10.3705Z" fill="#56003E"/>
<path opacity="0.89" fill-rule="evenodd" clip-rule="evenodd" d="M53.1326 11.9371C53.4165 11.9174 53.6976 11.9374 53.9759 11.9973C54.7022 12.7217 55.2242 13.565 55.5422 14.5274C55.4001 15.4018 54.9182 15.6427 54.0964 15.2503C53.6747 14.668 53.253 14.0856 52.8314 13.5033C52.5262 12.883 52.6265 12.3609 53.1326 11.9371Z" fill="#56003E"/>
<path opacity="0.886" fill-rule="evenodd" clip-rule="evenodd" d="M3.97593 15.4317C4.89744 15.4092 5.27897 15.8511 5.12051 16.757C4.77505 17.5489 4.35337 18.2918 3.85545 18.9859C2.93667 19.2296 2.47483 18.8883 2.46991 17.9618C2.79331 16.9907 3.29532 16.1473 3.97593 15.4317Z" fill="#56003E"/>
<path opacity="0.892" fill-rule="evenodd" clip-rule="evenodd" d="M56.1445 17.2391C56.6389 17.151 57.0605 17.2715 57.4096 17.6005C57.7465 18.3904 58.0477 19.1937 58.3132 20.0102C58.1287 20.7986 57.6468 21.0597 56.8674 20.7933C56.6808 20.647 56.5403 20.4663 56.4457 20.2511C56.1671 19.5534 55.906 18.8506 55.6626 18.1427C55.7161 17.7741 55.8767 17.4729 56.1445 17.2391Z" fill="#56003E"/>
<path opacity="0.894" fill-rule="evenodd" clip-rule="evenodd" d="M1.68675 21.0952C2.41325 21.019 2.81486 21.3403 2.89157 22.059C2.72987 22.8263 2.54915 23.5894 2.3494 24.3482C1.9174 25.0143 1.39531 25.0946 0.78314 24.5891C0.667706 24.3844 0.607465 24.1635 0.602417 23.9265C0.716694 23.1281 0.897417 22.3449 1.14459 21.5771C1.31287 21.3879 1.4936 21.2272 1.68675 21.0952Z" fill="#56003E"/>
<path opacity="0.896" fill-rule="evenodd" clip-rule="evenodd" d="M58.0723 23.0232C58.3563 23.0036 58.6373 23.0236 58.9157 23.0834C59.1365 23.1437 59.2771 23.2843 59.3373 23.5051C59.5104 24.2821 59.651 25.0652 59.759 25.8545C59.783 26.249 59.6224 26.5301 59.2771 26.6979C58.9558 26.7783 58.6346 26.7783 58.3132 26.6979C58.1685 26.5891 58.0681 26.4486 58.012 26.2762C57.7652 25.3648 57.6447 24.4411 57.6506 23.5051C57.7337 23.2822 57.8742 23.1215 58.0723 23.0232Z" fill="#56003E"/>
<path opacity="0.906" fill-rule="evenodd" clip-rule="evenodd" d="M0.481928 27.1202C0.765879 27.1006 1.04701 27.1206 1.3253 27.1804C1.54618 27.2407 1.68675 27.3813 1.74699 27.6021C1.82731 28.5259 1.82731 29.4495 1.74699 30.3732C1.23871 31.1253 0.676458 31.1654 0.0602412 30.4937C-0.0200804 29.57 -0.0200804 28.6464 0.0602412 27.7226C0.180395 27.503 0.320957 27.3021 0.481928 27.1202Z" fill="#56003E"/>
<path opacity="0.911" fill-rule="evenodd" clip-rule="evenodd" d="M58.6747 29.0482C58.9587 29.0285 59.2398 29.0485 59.5181 29.1084C59.7389 29.1687 59.8795 29.3093 59.9398 29.5301C60.0201 30.4538 60.0201 31.3775 59.9398 32.3012C59.6521 32.8706 59.1901 33.0513 58.5542 32.8434C58.4539 32.743 58.3534 32.6425 58.253 32.5422C58.1727 31.5783 58.1727 30.6145 58.253 29.6506C58.3731 29.431 58.5137 29.2301 58.6747 29.0482Z" fill="#56003E"/>
<path opacity="0.896" fill-rule="evenodd" clip-rule="evenodd" d="M0.963782 33.1452C1.43759 33.1345 1.77895 33.3354 1.98788 33.7477C2.2347 34.6591 2.35518 35.5827 2.34932 36.5187C1.78707 37.1613 1.22483 37.1613 0.662578 36.5187C0.489566 35.7417 0.349002 34.9586 0.240891 34.1693C0.234938 33.6358 0.475903 33.2944 0.963782 33.1452Z" fill="#56003E"/>
<path opacity="0.892" fill-rule="evenodd" clip-rule="evenodd" d="M58.0723 35.1938C58.8635 35.0247 59.3051 35.3259 59.3976 36.0974C59.31 37.0727 59.0289 37.9763 58.5542 38.8082C57.7251 39.1373 57.2432 38.8762 57.1084 38.0251C57.2606 37.2358 57.4413 36.4527 57.6506 35.6757C57.7337 35.4528 57.8742 35.2921 58.0723 35.1938Z" fill="#56003E"/>
<path opacity="0.883" fill-rule="evenodd" clip-rule="evenodd" d="M2.40966 39.0498C2.83441 39.0312 3.17577 39.1918 3.43375 39.5317C3.6816 40.2282 3.96272 40.9109 4.27713 41.5799C4.30191 42.6785 3.7999 43.0198 2.7711 42.604C2.30423 41.7859 1.94278 40.9226 1.68677 40.0136C1.71091 39.51 1.95188 39.1887 2.40966 39.0498Z" fill="#56003E"/>
<path opacity="0.886" fill-rule="evenodd" clip-rule="evenodd" d="M56.1445 40.9778C56.9596 40.7714 57.4415 41.0726 57.5903 41.8814C57.2655 42.8525 56.7836 43.736 56.1445 44.532C55.1605 44.6726 54.7389 44.2509 54.8795 43.2669C55.2415 42.4619 55.6632 41.6987 56.1445 40.9778Z" fill="#56003E"/>
<path opacity="0.888" fill-rule="evenodd" clip-rule="evenodd" d="M4.81933 44.5928C5.1431 44.573 5.46439 44.5932 5.78318 44.653C6.24503 45.2756 6.70688 45.898 7.16873 46.5205C7.53102 47.724 7.10933 48.1859 5.90367 47.906C5.23745 47.1991 4.71535 46.3958 4.3374 45.4964C4.39688 45.134 4.55753 44.8328 4.81933 44.5928Z" fill="#56003E"/>
<path opacity="0.89" fill-rule="evenodd" clip-rule="evenodd" d="M53.1326 46.2798C54.1897 46.1121 54.6114 46.5538 54.3976 47.6051C53.9414 48.2625 53.4393 48.885 52.8916 49.4726C51.7855 49.8732 51.3235 49.4916 51.5061 48.328C52.0355 47.6198 52.5776 46.9371 53.1326 46.2798Z" fill="#56003E"/>
<path opacity="0.894" fill-rule="evenodd" clip-rule="evenodd" d="M9.0361 49.2924C9.89617 49.7287 10.6391 50.3312 11.265 51.0996C11.5845 52.3459 11.1227 52.7675 9.87947 52.3646C9.3373 51.8225 8.79513 51.2803 8.25296 50.7381C7.98978 49.9432 8.25083 49.4613 9.0361 49.2924Z" fill="#56003E"/>
<path opacity="0.884" fill-rule="evenodd" clip-rule="evenodd" d="M49.1565 50.7383C50.2773 50.7285 50.6187 51.2506 50.1806 52.3046C49.593 52.8523 48.9705 53.3543 48.3131 53.8106C47.2207 53.9236 46.8391 53.4618 47.1685 52.425C47.8189 51.8338 48.4816 51.2717 49.1565 50.7383Z" fill="#56003E"/>
<path opacity="0.886" fill-rule="evenodd" clip-rule="evenodd" d="M13.3735 53.2688C13.6177 53.2493 13.8587 53.2694 14.0964 53.3291C14.6788 53.7209 15.2812 54.0823 15.9036 54.4134C16.5738 55.0355 16.5336 55.5976 15.7832 56.1002C15.5422 56.1805 15.3012 56.1805 15.0603 56.1002C14.4579 55.7387 13.8555 55.3773 13.253 55.0158C12.6139 54.3817 12.654 53.7994 13.3735 53.2688Z" fill="#56003E"/>
<path opacity="0.885" fill-rule="evenodd" clip-rule="evenodd" d="M44.2169 54.3534C45.4081 54.3379 45.7496 54.8601 45.241 55.9196C44.5671 56.3471 43.8643 56.7287 43.1326 57.0642C42.0815 57.1496 41.7 56.6878 41.988 55.6787C42.7087 55.1882 43.4518 54.7465 44.2169 54.3534Z" fill="#56003E"/>
<path opacity="0.891" fill-rule="evenodd" clip-rule="evenodd" d="M18.6747 56.1609C19.6782 56.2609 20.642 56.522 21.5662 56.9441C21.9601 57.3601 22.0203 57.8219 21.747 58.3296C21.5441 58.5183 21.3031 58.6387 21.0241 58.691C20.1836 58.4377 19.3603 58.1365 18.5542 57.7874C18.0488 57.1903 18.089 56.6481 18.6747 56.1609Z" fill="#56003E"/>
<path opacity="0.898" fill-rule="evenodd" clip-rule="evenodd" d="M38.7951 56.7634C39.7225 56.8276 40.0638 57.3096 39.8192 58.2092C39.7189 58.3096 39.6184 58.4101 39.518 58.5104C38.588 58.9038 37.6242 59.1046 36.6264 59.1128C36.0317 58.636 35.9916 58.1139 36.506 57.5466C37.2852 57.2935 38.0484 57.0326 38.7951 56.7634Z" fill="#56003E"/>
<path opacity="0.908" fill-rule="evenodd" clip-rule="evenodd" d="M24.4579 57.8479C25.5252 57.837 26.5695 57.9774 27.5904 58.2696C27.8837 58.7173 27.9038 59.1791 27.6507 59.6551C27.4004 59.8308 27.1193 59.911 26.8073 59.8961C26.0069 59.8336 25.2238 59.693 24.4579 59.4744C23.9809 58.9324 23.9809 58.3902 24.4579 57.8479Z" fill="#56003E"/>
<path opacity="0.906" fill-rule="evenodd" clip-rule="evenodd" d="M32.0483 58.0889C32.5319 58.0689 33.0138 58.089 33.494 58.1491C34.1642 58.7712 34.124 59.3334 33.3736 59.8359C32.4549 60.0012 31.5311 60.0414 30.6025 59.9564C29.9415 59.3442 29.9816 58.7819 30.723 58.2696C31.1875 58.2483 31.6293 58.1881 32.0483 58.0889Z" fill="#56003E"/>
</svg>
