<svg width="302" height="78" viewBox="0 0 302 78" fill="none" xmlns="http://www.w3.org/2000/svg">
<path d="M1 39.8495L4.45877 42.4889C7.91754 45.1282 14.8351 50.4069 21.7526 50.6889C28.6702 50.9708 35.5877 46.2561 42.5053 43.9774C49.4228 41.6986 56.3403 41.8559 63.2579 51.9225C70.1754 61.9892 77.093 81.9653 84.0105 74.7833C90.9281 67.6013 97.8456 33.2612 104.763 16.1544C111.681 -0.952486 118.598 -0.826099 125.516 4.41154C132.433 9.64918 139.351 19.9981 146.268 20.5243C153.186 21.0505 160.103 11.754 167.021 17.6431C173.939 23.5323 180.856 44.607 187.774 50.6036C194.691 56.6003 201.609 47.5187 208.526 35.6645C215.444 23.8102 222.361 9.18329 229.279 12.5167C236.196 15.8501 243.114 37.1438 250.032 38.6745C256.949 40.2052 264.309 12.5167 276.18 12.5167C288.05 12.5167 301 43.9774 301 43.9774" stroke="#CD0000" stroke-width="2"/>
</svg>
