<svg width="302" height="78" viewBox="0 0 302 78" fill="none" xmlns="http://www.w3.org/2000/svg">
<path d="M1 39.8495L4.84615 42.4889C8.69231 45.1282 16.3846 50.4069 24.0769 50.6889C31.7692 50.9708 39.4615 46.2561 47.1539 43.9773C54.8462 41.6986 62.5385 41.8558 70.2308 51.9225C77.9231 61.9892 85.6154 81.9652 93.3077 74.7833C101 67.6013 108.692 33.2612 116.385 16.1543C124.077 -0.952501 131.769 -0.826114 139.462 4.41153C147.154 9.64917 154.846 19.9981 162.538 20.5243C170.231 21.0505 177.923 11.754 185.615 17.6431C193.308 23.5322 201 44.607 208.692 50.6036C216.385 56.6003 224.077 47.5187 231.769 35.6645C239.462 23.8102 247.154 9.18327 254.846 12.5167C262.538 15.8501 270.231 37.1438 277.923 38.6745C285.615 40.2052 293.308 21.9729 297.154 12.8567L301 3.74054" stroke="#098C26" stroke-width="2"/>
</svg>
