<svg width="435" height="130" viewBox="0 0 435 130" fill="none" xmlns="http://www.w3.org/2000/svg">
<path d="M13.6364 0.224495C12.8601 0.576561 12.1678 1.30139 11.8741 2.06764C11.7273 2.46112 11.6434 6.62373 11.6434 14.5348V26.422L6.83916 26.4841C1.55245 26.5463 1.48951 26.567 0.440559 27.9752C0 28.5344 0 28.5965 0 56.2644C0 83.9323 0 83.9944 0.440559 84.5536C1.48951 85.9618 1.55245 85.9826 6.81818 86.0447L11.6224 86.1068L11.6853 91.6777C11.7483 96.9172 11.7692 97.2692 12.1888 97.8077C13.007 98.9053 13.6783 99.2366 15 99.2366C16.3217 99.2366 16.993 98.9053 17.8112 97.8077C18.2308 97.2692 18.2517 96.9172 18.3147 91.6777L18.3776 86.1068L23.1818 86.0447C28.4476 85.9826 28.5105 85.9618 29.5594 84.5536C30 83.9944 30 83.9323 30 56.2644C30 28.5965 30 28.5344 29.5594 27.9752C28.5105 26.567 28.4476 26.5463 23.1818 26.4841L18.3566 26.422L18.3147 14.2241C18.2517 2.27473 18.2517 2.02622 17.8112 1.46706C17.5804 1.15643 17.1399 0.700813 16.8462 0.493721C16.1329 -0.0240173 14.4755 -0.168983 13.6364 0.224495Z" fill="#098C26"/>
<path d="M103.636 0.224495C102.86 0.576561 102.168 1.30139 101.874 2.06764C101.727 2.46112 101.643 6.62373 101.643 14.5348V26.422L96.8392 26.4841C91.5524 26.5463 91.4895 26.567 90.4406 27.9752C90 28.5344 90 28.5965 90 56.2644C90 83.9323 90 83.9944 90.4406 84.5536C91.4895 85.9618 91.5524 85.9826 96.8182 86.0447L101.622 86.1068L101.685 91.6777C101.748 96.9172 101.769 97.2692 102.189 97.8077C103.007 98.9053 103.678 99.2366 105 99.2366C106.322 99.2366 106.993 98.9053 107.811 97.8077C108.231 97.2692 108.252 96.9172 108.315 91.6777L108.378 86.1068L113.182 86.0447C118.448 85.9826 118.51 85.9618 119.559 84.5536C120 83.9944 120 83.9323 120 56.2644C120 28.5965 120 28.5344 119.559 27.9752C118.51 26.567 118.448 26.5463 113.182 26.4841L108.357 26.422L108.315 14.2241C108.252 2.27473 108.252 2.02622 107.811 1.46706C107.58 1.15643 107.14 0.700813 106.846 0.493721C106.133 -0.0240173 104.476 -0.168983 103.636 0.224495Z" fill="#CD0000"/>
<path d="M193.636 0.224495C192.86 0.576561 192.168 1.30139 191.874 2.06764C191.727 2.46112 191.643 6.62373 191.643 14.5348V26.422L186.839 26.4841C181.552 26.5463 181.49 26.567 180.441 27.9752C180 28.5344 180 28.5965 180 56.2644C180 83.9323 180 83.9944 180.441 84.5536C181.49 85.9618 181.552 85.9826 186.818 86.0447L191.622 86.1068L191.685 91.6777C191.748 96.9172 191.769 97.2692 192.189 97.8077C193.007 98.9053 193.678 99.2366 195 99.2366C196.322 99.2366 196.993 98.9053 197.811 97.8077C198.231 97.2692 198.252 96.9172 198.315 91.6777L198.378 86.1068L203.182 86.0447C208.448 85.9826 208.51 85.9618 209.559 84.5536C210 83.9944 210 83.9323 210 56.2644C210 28.5965 210 28.5344 209.559 27.9752C208.51 26.567 208.448 26.5463 203.182 26.4841L198.357 26.422L198.315 14.2241C198.252 2.27473 198.252 2.02622 197.811 1.46706C197.58 1.15643 197.14 0.700813 196.846 0.493721C196.133 -0.0240173 194.476 -0.168983 193.636 0.224495Z" fill="#098C26"/>
<path d="M283.636 0.224495C282.86 0.576561 282.168 1.30139 281.874 2.06764C281.727 2.46112 281.643 6.62373 281.643 14.5348V26.422L276.839 26.4841C271.552 26.5463 271.49 26.567 270.441 27.9752C270 28.5344 270 28.5965 270 56.2644C270 83.9323 270 83.9944 270.441 84.5536C271.49 85.9618 271.552 85.9826 276.818 86.0447L281.622 86.1068L281.685 91.6777C281.748 96.9172 281.769 97.2692 282.189 97.8077C283.007 98.9053 283.678 99.2366 285 99.2366C286.322 99.2366 286.993 98.9053 287.811 97.8077C288.231 97.2692 288.252 96.9172 288.315 91.6777L288.378 86.1068L293.182 86.0447C298.448 85.9826 298.51 85.9618 299.559 84.5536C300 83.9944 300 83.9323 300 56.2644C300 28.5965 300 28.5344 299.559 27.9752C298.51 26.567 298.448 26.5463 293.182 26.4841L288.357 26.422L288.315 14.2241C288.252 2.27473 288.252 2.02622 287.811 1.46706C287.58 1.15643 287.14 0.700813 286.846 0.493721C286.133 -0.0240173 284.476 -0.168983 283.636 0.224495Z" fill="#098C26"/>
<path d="M373.636 0.224495C372.86 0.576561 372.168 1.30139 371.874 2.06764C371.727 2.46112 371.643 6.62373 371.643 14.5348V26.422L366.839 26.4841C361.552 26.5463 361.49 26.567 360.441 27.9752C360 28.5344 360 28.5965 360 56.2644C360 83.9323 360 83.9944 360.441 84.5536C361.49 85.9618 361.552 85.9826 366.818 86.0447L371.622 86.1068L371.685 91.6777C371.748 96.9172 371.769 97.2692 372.189 97.8077C373.007 98.9053 373.678 99.2366 375 99.2366C376.322 99.2366 376.993 98.9053 377.811 97.8077C378.231 97.2692 378.252 96.9172 378.315 91.6777L378.378 86.1068L383.182 86.0447C388.448 85.9826 388.51 85.9618 389.559 84.5536C390 83.9944 390 83.9323 390 56.2644C390 28.5965 390 28.5344 389.559 27.9752C388.51 26.567 388.448 26.5463 383.182 26.4841L378.357 26.422L378.315 14.2241C378.252 2.27473 378.252 2.02622 377.811 1.46706C377.58 1.15643 377.14 0.700813 376.846 0.493721C376.133 -0.0240173 374.476 -0.168983 373.636 0.224495Z" fill="#CD0000"/>
<path d="M58.6364 10.1931C57.8601 10.6155 57.1678 11.4853 56.8741 12.4048C56.7273 12.877 56.6434 17.8721 56.6434 27.3654V41.6301L51.8392 41.7046C46.5524 41.7792 46.4895 41.8041 45.4406 43.4939C45 44.1649 45 44.2395 45 77.441C45 110.642 45 110.717 45.4406 111.388C46.4895 113.078 46.5524 113.103 51.8182 113.177L56.6224 113.252L56.6853 119.937C56.7483 126.224 56.7692 126.647 57.1888 127.293C58.007 128.61 58.6783 129.008 60 129.008C61.3217 129.008 61.993 128.61 62.8112 127.293C63.2308 126.647 63.2517 126.224 63.3147 119.937L63.3776 113.252L68.1818 113.177C73.4476 113.103 73.5105 113.078 74.5594 111.388C75 110.717 75 110.642 75 77.441C75 44.2395 75 44.1649 74.5594 43.4939C73.5105 41.8041 73.4476 41.7792 68.1818 41.7046L63.3566 41.6301L63.3147 26.9926C63.2517 12.6534 63.2517 12.3551 62.8112 11.6842C62.5804 11.3114 62.1399 10.7646 61.8462 10.5161C61.1329 9.89485 59.4755 9.72089 58.6364 10.1931Z" fill="#CD0000"/>
<path d="M148.636 11.1854C147.86 11.6079 147.168 12.4777 146.874 13.3972C146.727 13.8694 146.643 18.8645 146.643 28.3578V42.6225L141.839 42.697C136.552 42.7716 136.49 42.7964 135.441 44.4863C135 45.1573 135 45.2319 135 78.4333C135 111.635 135 111.709 135.441 112.38C136.49 114.07 136.552 114.095 141.818 114.17L146.622 114.244L146.685 120.929C146.748 127.217 146.769 127.639 147.189 128.285C148.007 129.602 148.678 130 150 130C151.322 130 151.993 129.602 152.811 128.285C153.231 127.639 153.252 127.217 153.315 120.929L153.378 114.244L158.182 114.17C163.448 114.095 163.51 114.07 164.559 112.38C165 111.709 165 111.635 165 78.4333C165 45.2319 165 45.1573 164.559 44.4863C163.51 42.7964 163.448 42.7716 158.182 42.697L153.357 42.6225L153.315 27.985C153.252 13.6457 153.252 13.3475 152.811 12.6765C152.58 12.3037 152.14 11.757 151.846 11.5085C151.133 10.8872 149.476 10.7133 148.636 11.1854Z" fill="#098C26"/>
<path d="M238.636 11.1854C237.86 11.6079 237.168 12.4777 236.874 13.3972C236.727 13.8694 236.643 18.8645 236.643 28.3578V42.6225L231.839 42.697C226.552 42.7716 226.49 42.7964 225.441 44.4863C225 45.1573 225 45.2319 225 78.4333C225 111.635 225 111.709 225.441 112.38C226.49 114.07 226.552 114.095 231.818 114.17L236.622 114.244L236.685 120.929C236.748 127.217 236.769 127.639 237.189 128.285C238.007 129.602 238.678 130 240 130C241.322 130 241.993 129.602 242.811 128.285C243.231 127.639 243.252 127.217 243.315 120.929L243.378 114.244L248.182 114.17C253.448 114.095 253.51 114.07 254.559 112.38C255 111.709 255 111.635 255 78.4333C255 45.2319 255 45.1573 254.559 44.4863C253.51 42.7964 253.448 42.7716 248.182 42.697L243.357 42.6225L243.315 27.985C243.252 13.6457 243.252 13.3475 242.811 12.6765C242.58 12.3037 242.14 11.757 241.846 11.5085C241.133 10.8872 239.476 10.7133 238.636 11.1854Z" fill="#CD0000"/>
<path d="M328.636 11.1854C327.86 11.6079 327.168 12.4777 326.874 13.3972C326.727 13.8694 326.643 18.8645 326.643 28.3578V42.6225L321.839 42.697C316.552 42.7716 316.49 42.7964 315.441 44.4863C315 45.1573 315 45.2319 315 78.4333C315 111.635 315 111.709 315.441 112.38C316.49 114.07 316.552 114.095 321.818 114.17L326.622 114.244L326.685 120.929C326.748 127.217 326.769 127.639 327.189 128.285C328.007 129.602 328.678 130 330 130C331.322 130 331.993 129.602 332.811 128.285C333.231 127.639 333.252 127.217 333.315 120.929L333.378 114.244L338.182 114.17C343.448 114.095 343.51 114.07 344.559 112.38C345 111.709 345 111.635 345 78.4333C345 45.2319 345 45.1573 344.559 44.4863C343.51 42.7964 343.448 42.7716 338.182 42.697L333.357 42.6225L333.315 27.985C333.252 13.6457 333.252 13.3475 332.811 12.6765C332.58 12.3037 332.14 11.757 331.846 11.5085C331.133 10.8872 329.476 10.7133 328.636 11.1854Z" fill="#098C26"/>
<path d="M418.636 11.1854C417.86 11.6079 417.168 12.4777 416.874 13.3972C416.727 13.8694 416.643 18.8645 416.643 28.3578V42.6225L411.839 42.697C406.552 42.7716 406.49 42.7964 405.441 44.4863C405 45.1573 405 45.2319 405 78.4333C405 111.635 405 111.709 405.441 112.38C406.49 114.07 406.552 114.095 411.818 114.17L416.622 114.244L416.685 120.929C416.748 127.217 416.769 127.639 417.189 128.285C418.007 129.602 418.678 130 420 130C421.322 130 421.993 129.602 422.811 128.285C423.231 127.639 423.252 127.217 423.315 120.929L423.378 114.244L428.182 114.17C433.448 114.095 433.51 114.07 434.559 112.38C435 111.709 435 111.635 435 78.4333C435 45.2319 435 45.1573 434.559 44.4863C433.51 42.7964 433.448 42.7716 428.182 42.697L423.357 42.6225L423.315 27.985C423.252 13.6457 423.252 13.3475 422.811 12.6765C422.58 12.3037 422.14 11.757 421.846 11.5085C421.133 10.8872 419.476 10.7133 418.636 11.1854Z" fill="#098C26"/>
</svg>
